<svg width="20" height="20" viewBox="0 0 20 20" fill="none" xmlns="http://www.w3.org/2000/svg">
<path d="M9.99984 1.66669C14.6022 1.66669 18.3332 5.39765 18.3332 10C18.3332 14.6024 14.6022 18.3334 9.99984 18.3334C5.39746 18.3334 1.6665 14.6024 1.6665 10C1.6665 5.39765 5.39746 1.66669 9.99984 1.66669ZM11.6665 8.33335H8.33317C7.87294 8.33335 7.49984 8.70644 7.49984 9.16669V12.5H8.74984V15.8334H11.2498V12.5H12.4998V9.16669C12.4998 8.70644 12.1268 8.33335 11.6665 8.33335ZM9.99984 4.16669C9.07934 4.16669 8.33317 4.91288 8.33317 5.83335C8.33317 6.75383 9.07934 7.50002 9.99984 7.50002C10.9203 7.50002 11.6665 6.75383 11.6665 5.83335C11.6665 4.91288 10.9203 4.16669 9.99984 4.16669Z" fill="#EA4343"/>
</svg>
