<svg width="20" height="20" viewBox="0 0 20 20" fill="none" xmlns="http://www.w3.org/2000/svg">
<path d="M10 19.9967C4.47715 19.9967 0 15.5196 0 9.9967C0 4.47386 4.47715 -0.0032959 10 -0.0032959C15.5228 -0.0032959 20 4.47386 20 9.9967C20 15.5196 15.5228 19.9967 10 19.9967ZM3.32889 14.422C4.76378 16.5675 7.20868 17.9803 9.9836 17.9803C14.4018 17.9803 17.9836 14.3985 17.9836 9.9803C17.9836 7.2053 16.5707 4.76034 14.4251 3.32547C15.2705 6.35324 14.5025 9.7369 12.1213 12.1181C9.7401 14.4993 6.3566 15.2672 3.32889 14.422Z" fill="white"/>
</svg>
