<svg width="18" height="19" viewBox="0 0 18 19" fill="none" xmlns="http://www.w3.org/2000/svg">
<path d="M17.3334 13.1685C17.3326 15.5609 15.6514 17.5605 13.4061 18.0513L12.8744 16.4563C13.8777 16.2925 14.7305 15.6809 15.2208 14.8333H13.1667C12.2462 14.8333 11.5001 14.0871 11.5001 13.1666V9.83329C11.5001 8.91279 12.2462 8.16663 13.1667 8.16663H15.6152C15.2051 4.87803 12.3997 2.33329 9.00008 2.33329C5.6004 2.33329 2.79507 4.87803 2.38499 8.16663H4.83341C5.75389 8.16663 6.50008 8.91279 6.50008 9.83329V13.1666C6.50008 14.0871 5.75389 14.8333 4.83341 14.8333H2.33341C1.41294 14.8333 0.666748 14.0871 0.666748 13.1666V8.99996C0.666748 4.39758 4.39771 0.666626 9.00008 0.666626C13.6024 0.666626 17.3334 4.39758 17.3334 8.99996V9.83221V9.83329V13.1666V13.1685Z" fill="#8D99AF"/>
</svg>
