<svg width="17" height="20" viewBox="0 0 17 20" fill="none" xmlns="http://www.w3.org/2000/svg">
<g clip-path="url(#clip0_113_9723)">
<path d="M10.6993 3.75C11.7421 3.75 12.5874 2.91055 12.5874 1.875C12.5874 0.839453 11.7421 0 10.6993 0C9.65651 0 8.81119 0.839453 8.81119 1.875C8.81119 2.91055 9.65651 3.75 10.6993 3.75ZM4.47207 12.4012L3.8899 13.7496H1.25874C0.56368 13.7496 0 14.3094 0 14.9996C0 15.6898 0.56368 16.2496 1.25874 16.2496H4.30529C5.0625 16.2496 5.74419 15.8027 6.04038 15.1133L6.38615 14.3117L5.96643 14.0656C5.28514 13.666 4.784 13.0746 4.47207 12.4012ZM15.1049 8.74961H13.3729L12.3479 6.66953C11.8562 5.67148 10.9534 4.9418 9.9177 4.67969L7.12172 3.85391C6.00852 3.58828 4.8493 3.83242 3.94183 4.52344L2.38138 5.71133C1.8295 6.13125 1.72487 6.91563 2.14851 7.46367C2.57216 8.01172 3.36163 8.11445 3.91311 7.69492L5.47434 6.50703C5.77605 6.27695 6.16036 6.19453 6.46836 6.26719L7.04659 6.43789L5.57308 9.85156C5.07666 11.0031 5.52155 12.352 6.6076 12.9887L9.95035 14.9484L8.8698 18.3754C8.66211 19.034 9.03147 19.7352 9.69467 19.9414C9.82015 19.9805 9.94681 19.9992 10.0715 19.9992C10.6069 19.9992 11.1033 19.6566 11.272 19.1223L12.5166 15.1746C12.7491 14.3633 12.4029 13.4918 11.6654 13.05L9.25647 11.6383L10.4881 8.58047L11.2854 10.1988C11.6001 10.8371 12.2656 11.2492 12.9812 11.2492H15.1049C15.8 11.2492 16.3636 10.6895 16.3636 9.99922C16.3636 9.30898 15.8 8.74961 15.1049 8.74961Z" fill="#32C9A3"/>
</g>
<defs>
<clipPath id="clip0_113_9723">
<rect width="16.3636" height="20" fill="white"/>
</clipPath>
</defs>
</svg>
