<svg width="20" height="20" viewBox="0 0 20 20" fill="none" xmlns="http://www.w3.org/2000/svg">
<path d="M12.5002 2.5H7.50016C5.01703 2.5 2.95668 4.31011 2.56661 6.68281C2.68192 6.67212 2.79874 6.66667 2.91683 6.66667C4.9879 6.66667 6.66683 8.34558 6.66683 10.4167V11.6667H13.3335V10.4167C13.3335 8.34558 15.0124 6.66667 17.0835 6.66667C17.2016 6.66667 17.3184 6.67212 17.4337 6.68281C17.0437 4.31011 14.9833 2.5 12.5002 2.5ZM17.5002 8.375C17.3655 8.34767 17.2262 8.33333 17.0835 8.33333C15.9329 8.33333 15.0002 9.26608 15.0002 10.4167V14.1667H13.3335V13.3333H6.66683V14.1667H5.00016V10.4167C5.00016 9.26608 4.06742 8.33333 2.91683 8.33333C2.77414 8.33333 2.6348 8.34767 2.50016 8.375C1.54923 8.568 0.833496 9.40875 0.833496 10.4167C0.833496 10.9072 0.984938 11.2823 1.1587 11.7128C1.39252 12.2921 1.66675 12.9715 1.66665 14.1667V16.6667C1.66665 17.1269 2.03974 17.5 2.49998 17.5H10.0002H17.5003C17.9606 17.5 18.3337 17.1269 18.3337 16.6667V14.1667C18.3336 12.9715 18.6078 12.2921 18.8417 11.7128C19.0154 11.2823 19.1668 10.9072 19.1668 10.4167C19.1668 9.40875 18.4511 8.568 17.5002 8.375Z" fill="#8D99AF"/>
</svg>
